<?xml version="1.0" encoding="UTF-8" standalone="no"?><svg xmlns="http://www.w3.org/2000/svg" xmlns:xlink="http://www.w3.org/1999/xlink" contentScriptType="application/ecmascript" contentStyleType="text/css" height="1401px" preserveAspectRatio="none" style="width:1359px;height:1401px;" version="1.1" viewBox="0 0 1359 1401" width="1359px" zoomAndPan="magnify"><defs/><g><!--entity _BaseTypes--><rect fill="#F8F8F8" height="34.4844" rx="3" ry="3" style="stroke: #000000; stroke-width: 0.5;" width="83" x="842.5" y="736"/><text fill="#000000" font-family="Tahoma, sans-serif" font-size="12" lengthAdjust="spacingAndGlyphs" textLength="63" x="852.5" y="758.0059">BaseTypes</text><!--entity _BK--><rect fill="#F8F8F8" height="34.4844" rx="3" ry="3" style="stroke: #000000; stroke-width: 0.5;" width="35" x="213.5" y="713"/><text fill="#000000" font-family="Tahoma, sans-serif" font-size="12" lengthAdjust="spacingAndGlyphs" textLength="15" x="223.5" y="735.0059">BK</text><!--entity _BKCondition--><rect fill="#F8F8F8" height="34.4844" rx="3" ry="3" style="stroke: #000000; stroke-width: 0.5;" width="90" x="322" y="423"/><text fill="#000000" font-family="Tahoma, sans-serif" font-size="12" lengthAdjust="spacingAndGlyphs" textLength="70" x="332" y="445.0059">BKCondition</text><!--entity _BKConstant--><rect fill="#F8F8F8" height="34.4844" rx="3" ry="3" style="stroke: #000000; stroke-width: 0.5;" width="87" x="1042" y="283"/><text fill="#000000" font-family="Tahoma, sans-serif" font-size="12" lengthAdjust="spacingAndGlyphs" textLength="67" x="1052" y="305.0059">BKConstant</text><!--entity _BKItems--><rect fill="#F8F8F8" height="34.4844" rx="3" ry="3" style="stroke: #000000; stroke-width: 0.5;" width="69" x="332.5" y="214"/><text fill="#000000" font-family="Tahoma, sans-serif" font-size="12" lengthAdjust="spacingAndGlyphs" textLength="49" x="342.5" y="236.0059">BKItems</text><!--entity _BKOption--><rect fill="#F8F8F8" height="34.4844" rx="3" ry="3" style="stroke: #000000; stroke-width: 0.5;" width="74" x="330" y="689"/><text fill="#000000" font-family="Tahoma, sans-serif" font-size="12" lengthAdjust="spacingAndGlyphs" textLength="54" x="340" y="711.0059">BKOption</text><!--entity _BKService--><rect fill="#F8F8F8" height="34.4844" rx="3" ry="3" style="stroke: #000000; stroke-width: 0.5;" width="77" x="461" y="150"/><text fill="#000000" font-family="Tahoma, sans-serif" font-size="12" lengthAdjust="spacingAndGlyphs" textLength="57" x="471" y="172.0059">BKService</text><!--entity _CMGrid--><rect fill="#F8F8F8" height="34.4844" rx="3" ry="3" style="stroke: #000000; stroke-width: 0.5;" width="60" x="337" y="952"/><text fill="#000000" font-family="Tahoma, sans-serif" font-size="12" lengthAdjust="spacingAndGlyphs" textLength="40" x="347" y="974.0059">CMGrid</text><!--entity _CMGridFooter--><rect fill="#F8F8F8" height="34.4844" rx="3" ry="3" style="stroke: #000000; stroke-width: 0.5;" width="97" x="451" y="848"/><text fill="#000000" font-family="Tahoma, sans-serif" font-size="12" lengthAdjust="spacingAndGlyphs" textLength="77" x="461" y="870.0059">CMGridFooter</text><!--entity _CMGridHeader--><rect fill="#F8F8F8" height="34.4844" rx="3" ry="3" style="stroke: #000000; stroke-width: 0.5;" width="100" x="449.5" y="952"/><text fill="#000000" font-family="Tahoma, sans-serif" font-size="12" lengthAdjust="spacingAndGlyphs" textLength="80" x="459.5" y="974.0059">CMGridHeader</text><!--entity _CMGridInfo--><rect fill="#F8F8F8" height="34.4844" rx="3" ry="3" style="stroke: #000000; stroke-width: 0.5;" width="84" x="457.5" y="1042"/><text fill="#000000" font-family="Tahoma, sans-serif" font-size="12" lengthAdjust="spacingAndGlyphs" textLength="64" x="467.5" y="1064.0059">CMGridInfo</text><!--entity _CMGridSidebar--><rect fill="#F8F8F8" height="34.4844" rx="3" ry="3" style="stroke: #000000; stroke-width: 0.5;" width="103" x="448" y="900"/><text fill="#000000" font-family="Tahoma, sans-serif" font-size="12" lengthAdjust="spacingAndGlyphs" textLength="83" x="458" y="922.0059">CMGridSidebar</text><!--entity _CMSelection--><rect fill="#F8F8F8" height="34.4844" rx="3" ry="3" style="stroke: #000000; stroke-width: 0.5;" width="91" x="587" y="544"/><text fill="#000000" font-family="Tahoma, sans-serif" font-size="12" lengthAdjust="spacingAndGlyphs" textLength="71" x="597" y="566.0059">CMSelection</text><!--entity _CMTextInput--><rect fill="#F8F8F8" height="34.4844" rx="3" ry="3" style="stroke: #000000; stroke-width: 0.5;" width="91" x="587" y="710"/><text fill="#000000" font-family="Tahoma, sans-serif" font-size="12" lengthAdjust="spacingAndGlyphs" textLength="71" x="597" y="732.0059">CMTextInput</text><!--entity _constant--><rect fill="#F8F8F8" height="34.4844" rx="3" ry="3" style="stroke: #000000; stroke-width: 0.5;" width="79" x="33.5" y="63"/><text fill="#000000" font-family="Tahoma, sans-serif" font-size="12" font-weight="bold" lengthAdjust="spacingAndGlyphs" textLength="59" x="43.5" y="85.0059">constant</text><ellipse cx="367.1777" cy="754.242" fill="#F8F8F8" rx="20.6777" ry="13.242" style="stroke: #383838; stroke-width: 0.5;"/><text fill="#000000" font-family="Tahoma, sans-serif" font-size="12" lengthAdjust="spacingAndGlyphs" textLength="25" x="354.6777" y="757.9842">data</text><!--entity _DT--><rect fill="#F8F8F8" height="34.4844" rx="3" ry="3" style="stroke: #000000; stroke-width: 0.5;" width="36" x="213" y="1246"/><text fill="#000000" font-family="Tahoma, sans-serif" font-size="12" lengthAdjust="spacingAndGlyphs" textLength="16" x="223" y="1268.0059">DT</text><!--entity _GetBookInfo--><rect fill="#F8F8F8" height="34.4844" rx="3" ry="3" style="stroke: #000000; stroke-width: 0.5;" width="94" x="837" y="188"/><text fill="#000000" font-family="Tahoma, sans-serif" font-size="12" lengthAdjust="spacingAndGlyphs" textLength="74" x="847" y="210.0059">GetBookInfo</text><ellipse cx="73.2487" cy="1104.242" fill="#F8F8F8" rx="27.7487" ry="13.242" style="stroke: #383838; stroke-width: 0.5;"/><text fill="#000000" font-family="Tahoma, sans-serif" font-size="12" font-weight="bold" lengthAdjust="spacingAndGlyphs" textLength="35" x="55.7487" y="1107.9842">index</text><!--entity _LocalStorage--><rect fill="#F8F8F8" height="34.4844" rx="3" ry="3" style="stroke: #000000; stroke-width: 0.5;" width="96" x="836" y="582"/><text fill="#000000" font-family="Tahoma, sans-serif" font-size="12" lengthAdjust="spacingAndGlyphs" textLength="76" x="846" y="604.0059">LocalStorage</text><!--entity _OD--><rect fill="#F8F8F8" height="34.4844" rx="3" ry="3" style="stroke: #000000; stroke-width: 0.5;" width="39" x="613" y="1199"/><text fill="#000000" font-family="Tahoma, sans-serif" font-size="12" lengthAdjust="spacingAndGlyphs" textLength="19" x="623" y="1221.0059">OD</text><!--entity _ProcessService--><rect fill="#F8F8F8" height="34.4844" rx="3" ry="3" style="stroke: #000000; stroke-width: 0.5;" width="109" x="1239" y="283"/><text fill="#000000" font-family="Tahoma, sans-serif" font-size="12" lengthAdjust="spacingAndGlyphs" textLength="89" x="1249" y="305.0059">ProcessService</text><ellipse cx="72.7768" cy="130.7554" fill="#F8F8F8" rx="66.7768" ry="15.7554" style="stroke: #383838; stroke-width: 0.5;"/><text fill="#000000" font-family="Tahoma, sans-serif" font-size="12" font-weight="bold" lengthAdjust="spacingAndGlyphs" textLength="105" x="20.2768" y="134.4976">react-app-env.d</text><ellipse cx="632.4056" cy="285.242" fill="#F8F8F8" rx="33.4056" ry="13.242" style="stroke: #383838; stroke-width: 0.5;"/><text fill="#000000" font-family="Tahoma, sans-serif" font-size="12" lengthAdjust="spacingAndGlyphs" textLength="43" x="610.9056" y="288.9842">reducer</text><ellipse cx="72.8275" cy="1148.8655" fill="#F8F8F8" rx="57.3275" ry="13.8655" style="stroke: #383838; stroke-width: 0.5;"/><text fill="#000000" font-family="Tahoma, sans-serif" font-size="12" lengthAdjust="spacingAndGlyphs" textLength="81" x="32.3275" y="1152.6077">serviceWorker</text><ellipse cx="230.771" cy="79.8542" fill="#F8F8F8" rx="54.771" ry="13.3542" style="stroke: #383838; stroke-width: 0.5;"/><text fill="#000000" font-family="Tahoma, sans-serif" font-size="12" font-weight="bold" lengthAdjust="spacingAndGlyphs" textLength="74" x="193.771" y="83.5964">setupTests</text><!--entity _store--><rect fill="#F8F8F8" height="34.4844" rx="3" ry="3" style="stroke: #000000; stroke-width: 0.5;" width="50" x="732" y="800"/><text fill="#000000" font-family="Tahoma, sans-serif" font-size="12" lengthAdjust="spacingAndGlyphs" textLength="30" x="742" y="822.0059">store</text><!--entity _TD--><rect fill="#F8F8F8" height="34.4844" rx="3" ry="3" style="stroke: #000000; stroke-width: 0.5;" width="36" x="614.5" y="1109"/><text fill="#000000" font-family="Tahoma, sans-serif" font-size="12" lengthAdjust="spacingAndGlyphs" textLength="16" x="624.5" y="1131.0059">TD</text><!--entity _template--><rect fill="#F8F8F8" height="34.4844" rx="3" ry="3" style="stroke: #000000; stroke-width: 0.5;" width="78" x="718" y="582"/><text fill="#000000" font-family="Tahoma, sans-serif" font-size="12" font-weight="bold" lengthAdjust="spacingAndGlyphs" textLength="58" x="728" y="604.0059">template</text><!--entity _template2--><rect fill="#F8F8F8" height="34.4844" rx="3" ry="3" style="stroke: #000000; stroke-width: 0.5;" width="86" x="714" y="634"/><text fill="#000000" font-family="Tahoma, sans-serif" font-size="12" font-weight="bold" lengthAdjust="spacingAndGlyphs" textLength="66" x="724" y="656.0059">template2</text><!--entity _URLService--><rect fill="#F8F8F8" height="34.4844" rx="3" ry="3" style="stroke: #000000; stroke-width: 0.5;" width="83" x="458" y="1327"/><text fill="#000000" font-family="Tahoma, sans-serif" font-size="12" lengthAdjust="spacingAndGlyphs" textLength="63" x="468" y="1349.0059">URLService</text><!--link _BK to _BKCondition--><path d="M239.981,712.728 C263.116,662.66 330.193,517.492 355.853,461.96 " fill="none" id="_BK-_BKCondition" style="stroke: #000000; stroke-width: 0.5;"/><polygon fill="#000000" points="358.061,457.182,350.6548,463.6742,355.9637,461.7209,357.917,467.0298,358.061,457.182" style="stroke: #000000; stroke-width: 0.5;"/><!--link _BK to _BKItems--><path d="M236.613,712.823 C256.807,637.622 337.427,337.4 360.062,253.11 " fill="none" id="_BK-_BKItems" style="stroke: #000000; stroke-width: 0.5;"/><polygon fill="#000000" points="361.407,248.1,355.2048,255.7506,360.1071,252.9281,362.9297,257.8304,361.407,248.1" style="stroke: #000000; stroke-width: 0.5;"/><!--link _BK to _BKOption--><path d="M248.7,727.009 C267.643,723.616 299.227,717.959 324.852,713.37 " fill="none" id="_BK-_BKOption" style="stroke: #000000; stroke-width: 0.5;"/><polygon fill="#000000" points="329.892,712.467,320.3278,710.1163,324.9703,713.3485,321.7381,717.991,329.892,712.467" style="stroke: #000000; stroke-width: 0.5;"/><!--link _BK to _CMGrid--><path d="M241.637,747.188 C265.54,789.821 327.52,900.369 353.865,947.356 " fill="none" id="_BK-_CMGrid" style="stroke: #000000; stroke-width: 0.5;"/><polygon fill="#000000" points="356.45,951.967,355.5369,942.1606,354.0045,947.6059,348.5591,946.0734,356.45,951.967" style="stroke: #000000; stroke-width: 0.5;"/><!--link _BK to data--><path d="M248.7,732.991 C272.116,737.185 314.847,744.838 341.762,749.659 " fill="none" id="_BK-data" style="stroke: #000000; stroke-width: 0.5;"/><polygon fill="#000000" points="346.923,750.583,338.7691,745.059,342.0013,749.7015,337.3588,752.9337,346.923,750.583" style="stroke: #000000; stroke-width: 0.5;"/><!--link _BK to _GetBookInfo--><path d="M233.178,712.908 C238.973,632.613 266.43,293.09 322,205 C409.436,66.4 515.24,89.92 678,109 C733.354,115.49 749.968,113.44 800,138 C823.755,149.66 846.85,169.18 862.621,184.15 " fill="none" id="_BK-_GetBookInfo" style="stroke: #000000; stroke-width: 0.5;"/><polygon fill="#000000" points="866.469,187.85,862.7594,178.7265,862.8669,184.3823,857.2111,184.4898,866.469,187.85" style="stroke: #000000; stroke-width: 0.5;"/><!--link _BK to _store--><path d="M248.539,740.551 C266.074,751.225 294.922,767.347 322,776 C468.142,822.702 654.976,821.15 726.417,818.48 " fill="none" id="_BK-_store" style="stroke: #000000; stroke-width: 0.5;"/><polygon fill="#000000" points="731.763,818.27,722.6123,814.628,726.7669,818.4672,722.9277,822.6218,731.763,818.27" style="stroke: #000000; stroke-width: 0.5;"/><!--link _BKCondition to _BaseTypes--><path d="M412.059,440.17 C479.705,442.955 608.587,458.698 678,535 C731.435,593.738 659.165,652.567 714,710 C730.809,727.606 793.181,740.06 837.245,746.888 " fill="none" id="_BKCondition-_BaseTypes" style="stroke: #000000; stroke-width: 0.5;"/><polygon fill="#000000" points="842.254,747.652,833.9604,742.3401,837.3112,746.8977,832.7536,750.2485,842.254,747.652" style="stroke: #000000; stroke-width: 0.5;"/><!--link _BKCondition to _BKConstant--><path d="M400.547,422.85 C449.975,396.606 539.467,348.23 551,336 C575.819,309.68 556.28,282.1 587,263 C621.346,241.64 637.594,261.23 678,263 C769.374,267 791.538,281 883,281 C883,281 883,281 969,281 C991.576,281 1016.31,284.58 1037.08,288.63 " fill="none" id="_BKCondition-_BKConstant" style="stroke: #000000; stroke-width: 0.5;"/><polygon fill="#000000" points="1041.99,289.61,1033.9524,283.9181,1037.0876,288.6267,1032.3791,291.7619,1041.99,289.61" style="stroke: #000000; stroke-width: 0.5;"/><!--link _BKCondition to _BKService--><path d="M376.163,422.923 C398.913,375.33 463.001,241.26 488.169,188.61 " fill="none" id="_BKCondition-_BKService" style="stroke: #000000; stroke-width: 0.5;"/><polygon fill="#000000" points="490.34,184.07,482.8489,190.4641,488.1831,188.5809,490.0663,193.9151,490.34,184.07" style="stroke: #000000; stroke-width: 0.5;"/><!--link _BKCondition to _CMSelection--><path d="M391.346,457.108 C406.886,468.003 428.042,481.912 448,492 C491.751,514.115 544.358,533.187 582.006,545.64 " fill="none" id="_BKCondition-_CMSelection" style="stroke: #000000; stroke-width: 0.5;"/><polygon fill="#000000" points="586.985,547.277,579.6842,540.6665,582.2351,545.7156,577.186,548.2664,586.985,547.277" style="stroke: #000000; stroke-width: 0.5;"/><!--link _BKCondition to _CMTextInput--><path d="M376.777,457.122 C390.262,482.625 417.713,531.496 448,568 C501.624,632.632 521.506,643.432 587,696 C591.589,699.683 596.59,703.416 601.528,706.954 " fill="none" id="_BKCondition-_CMTextInput" style="stroke: #000000; stroke-width: 0.5;"/><polygon fill="#000000" points="605.651,709.875,600.6208,701.4076,601.5716,706.984,595.9952,707.9347,605.651,709.875" style="stroke: #000000; stroke-width: 0.5;"/><!--link _BKCondition to _GetBookInfo--><path d="M378.968,422.995 C407.3,380.81 487.706,271.77 587,230 C667.452,196.15 770.899,196.13 831.774,200.01 " fill="none" id="_BKCondition-_GetBookInfo" style="stroke: #000000; stroke-width: 0.5;"/><polygon fill="#000000" points="836.806,200.34,828.0903,195.7535,831.8169,200.0093,827.5611,203.736,836.806,200.34" style="stroke: #000000; stroke-width: 0.5;"/><!--link _BKCondition to _LocalStorage--><path d="M412.235,427.597 C473.887,412.595 588.186,393.167 678,426 C761.98,456.7 835.305,538.666 866.717,577.727 " fill="none" id="_BKCondition-_LocalStorage" style="stroke: #000000; stroke-width: 0.5;"/><polygon fill="#000000" points="869.982,581.822,867.4972,572.2917,866.8643,577.9131,861.2429,577.2801,869.982,581.822" style="stroke: #000000; stroke-width: 0.5;"/><!--link _BKCondition to _store--><path d="M379.301,457.004 C393.631,477.744 419.878,513.107 448,538 C488.533,573.879 506.634,571.986 551,603 C609.434,643.848 629.258,648.969 678,701 C692.725,716.719 724.53,766.409 742.65,795.403 " fill="none" id="_BKCondition-_store" style="stroke: #000000; stroke-width: 0.5;"/><polygon fill="#000000" points="745.436,799.871,744.068,790.1176,742.7904,795.6283,737.2797,794.3506,745.436,799.871" style="stroke: #000000; stroke-width: 0.5;"/><!--link _BKConstant to _ProcessService--><path d="M1129.18,300 C1159.39,300 1200.27,300 1233.58,300 " fill="none" id="_BKConstant-_ProcessService" style="stroke: #000000; stroke-width: 0.5;"/><polygon fill="#000000" points="1238.86,300,1229.86,296,1233.86,300,1229.86,304,1238.86,300" style="stroke: #000000; stroke-width: 0.5;"/><!--link _BKItems to _BaseTypes--><path d="M401.67,245.99 C440.22,264.13 504.086,297.24 551,337 C618.677,394.363 640.18,410.749 678,491 C713.895,567.167 659.899,612.48 714,677 C740.305,708.37 762.655,693.224 800,710 C815.831,717.111 832.919,725.785 847.451,733.474 " fill="none" id="_BKItems-_BaseTypes" style="stroke: #000000; stroke-width: 0.5;"/><polygon fill="#000000" points="851.875,735.826,845.8064,728.0689,847.4603,733.4786,842.0506,735.1325,851.875,735.826" style="stroke: #000000; stroke-width: 0.5;"/><!--link _BKItems to _BKConstant--><path d="M375.752,213.62 C387.758,188.59 413.152,142.5 448,116 C563.47,28.2 610.939,8 756,8 C756,8 756,8 969,8 C1026.91,8 1068.25,209.13 1080.64,277.54 " fill="none" id="_BKItems-_BKConstant" style="stroke: #000000; stroke-width: 0.5;"/><polygon fill="#000000" points="1081.55,282.61,1083.895,273.0444,1080.6656,277.6888,1076.0212,274.4594,1081.55,282.61" style="stroke: #000000; stroke-width: 0.5;"/><!--link _BKItems to _BKService--><path d="M401.607,214.52 C419.151,205.91 440.723,195.34 459.054,186.34 " fill="none" id="_BKItems-_BKService" style="stroke: #000000; stroke-width: 0.5;"/><polygon fill="#000000" points="463.641,184.1,453.7993,184.4742,459.1524,186.3028,457.3238,191.656,463.641,184.1" style="stroke: #000000; stroke-width: 0.5;"/><!--link _BKItems to _CMSelection--><path d="M377.706,248.03 C405.704,296.21 490.788,436.042 587,530 C590.92,533.828 595.356,537.517 599.873,540.933 " fill="none" id="_BKItems-_CMSelection" style="stroke: #000000; stroke-width: 0.5;"/><polygon fill="#000000" points="604.03,543.989,599.1477,535.4355,600.0014,541.0275,594.4093,541.8813,604.03,543.989" style="stroke: #000000; stroke-width: 0.5;"/><!--link _BKItems to _GetBookInfo--><path d="M377.152,213.8 C389.784,192.12 414.817,155.9 448,141 C584.208,79.83 766.228,149.5 844.532,185.78 " fill="none" id="_BKItems-_GetBookInfo" style="stroke: #000000; stroke-width: 0.5;"/><polygon fill="#000000" points="849.087,187.91,842.6261,180.4765,844.557,185.7936,839.2399,187.7245,849.087,187.91" style="stroke: #000000; stroke-width: 0.5;"/><!--link _BKItems to _LocalStorage--><path d="M401.664,222.31 C440.788,214.25 505.753,207.35 551,236 C580.893,254.93 561.637,282.33 587,307 C619.068,338.19 640.714,325.29 678,350 C681.788,352.51 797.113,455.49 800,459 C831.393,497.162 858.628,548.519 872.737,577.233 " fill="none" id="_BKItems-_LocalStorage" style="stroke: #000000; stroke-width: 0.5;"/><polygon fill="#000000" points="875.052,581.983,874.7029,572.1403,872.8606,577.4888,867.5121,575.6466,875.052,581.983" style="stroke: #000000; stroke-width: 0.5;"/><!--link _BKItems to _store--><path d="M391.399,248.08 C429.61,277.05 505.677,339.41 551,408 C575.663,445.325 555.085,470.65 587,502 C617.691,532.148 649.863,502.455 678,535 C729.934,595.069 691.41,633.874 714,710 C722.973,740.237 736.874,773.922 746.199,795.273 " fill="none" id="_BKItems-_store" style="stroke: #000000; stroke-width: 0.5;"/><polygon fill="#000000" points="748.233,799.898,748.2741,790.0492,746.2214,795.3205,740.9501,793.2678,748.233,799.898" style="stroke: #000000; stroke-width: 0.5;"/><!--link _BKOption to _BaseTypes--><path d="M404.045,716.193 C447.14,727.804 521.649,746.066 587,753 C675.049,762.342 778.661,759.109 837.002,755.996 " fill="none" id="_BKOption-_BaseTypes" style="stroke: #000000; stroke-width: 0.5;"/><polygon fill="#000000" points="842.159,755.715,832.9551,752.2096,837.1664,755.9865,833.3895,760.1978,842.159,755.715" style="stroke: #000000; stroke-width: 0.5;"/><!--link _BKOption to _BKConstant--><path d="M404.137,690.794 C417.834,685.109 433.598,678.661 448,673 C473.392,663.019 656.08,603.246 678,587 C798.48,497.706 733.038,319 883,319 C883,319 883,319 969,319 C991.576,319 1016.31,315.42 1037.08,311.37 " fill="none" id="_BKOption-_BKConstant" style="stroke: #000000; stroke-width: 0.5;"/><polygon fill="#000000" points="1041.99,310.39,1032.3791,308.2381,1037.0876,311.3733,1033.9524,316.0819,1041.99,310.39" style="stroke: #000000; stroke-width: 0.5;"/><!--link _BKOption to _CMSelection--><path d="M378.874,688.823 C392.589,668.527 418.035,635.109 448,616 C488.926,589.902 542.829,575.685 581.611,568.285 " fill="none" id="_BKOption-_CMSelection" style="stroke: #000000; stroke-width: 0.5;"/><polygon fill="#000000" points="586.74,567.329,577.159,565.0475,581.8248,568.246,578.6263,572.9118,586.74,567.329" style="stroke: #000000; stroke-width: 0.5;"/><!--link _BKOption to _LocalStorage--><path d="M404.066,703.41 C465.256,697.495 591.209,678.601 678,620 C699.807,605.276 690.406,584.648 714,573 C754.759,552.878 807.223,566.13 842.807,580.03 " fill="none" id="_BKOption-_LocalStorage" style="stroke: #000000; stroke-width: 0.5;"/><polygon fill="#000000" points="847.495,581.903,840.6224,574.8484,842.8521,580.0473,837.6532,582.277,847.495,581.903" style="stroke: #000000; stroke-width: 0.5;"/><!--link _BKOption to _store--><path d="M398.049,723.257 C402.762,726.107 407.546,729.084 412,732 C428.513,742.809 429.916,750.094 448,758 C544.17,800.043 670.161,812.223 726.523,815.675 " fill="none" id="_BKOption-_store" style="stroke: #000000; stroke-width: 0.5;"/><polygon fill="#000000" points="731.756,815.982,723.0057,811.4617,726.7646,815.6891,722.5372,819.448,731.756,815.982" style="stroke: #000000; stroke-width: 0.5;"/><!--link _BKService to _BKConstant--><path d="M538.331,157.8 C587.977,146.56 677.969,129 756,129 C756,129 756,129 969,129 C1040.06,129 1070.34,231.66 1080.38,277.89 " fill="none" id="_BKService-_BKConstant" style="stroke: #000000; stroke-width: 0.5;"/><polygon fill="#000000" points="1081.45,282.98,1083.5101,273.349,1080.4199,278.0873,1075.6817,274.9971,1081.45,282.98" style="stroke: #000000; stroke-width: 0.5;"/><!--link _BKService to _GetBookInfo--><path d="M538.431,168.98 C595.382,172.19 706.304,179.37 800,191 C810.219,192.27 821.102,193.9 831.508,195.6 " fill="none" id="_BKService-_GetBookInfo" style="stroke: #000000; stroke-width: 0.5;"/><polygon fill="#000000" points="836.573,196.44,828.3444,191.0279,831.6397,195.6259,827.0418,198.9212,836.573,196.44" style="stroke: #000000; stroke-width: 0.5;"/><!--link _BKService to _store--><path d="M511.997,184.33 C543.457,232.53 631.691,373.17 678,502 C704.86,576.726 694.572,600.007 714,677 C724.637,719.156 739.849,767.595 748.748,795.023 " fill="none" id="_BKService-_store" style="stroke: #000000; stroke-width: 0.5;"/><polygon fill="#000000" points="750.333,799.894,751.3516,790.098,748.7858,795.1394,743.7443,792.5735,750.333,799.894" style="stroke: #000000; stroke-width: 0.5;"/><!--link _CMGrid to _CMGridFooter--><path d="M382.687,951.972 C397.861,935.071 422.814,909.137 448,891 C451.026,888.821 454.26,886.719 457.574,884.717 " fill="none" id="_CMGrid-_CMGridFooter" style="stroke: #000000; stroke-width: 0.5;"/><polygon fill="#000000" points="462.131,882.054,452.3424,883.1414,457.8141,884.5767,456.3787,890.0485,462.131,882.054" style="stroke: #000000; stroke-width: 0.5;"/><!--link _CMGrid to _CMGridHeader--><path d="M397.287,969 C411.06,969 427.942,969 443.943,969 " fill="none" id="_CMGrid-_CMGridHeader" style="stroke: #000000; stroke-width: 0.5;"/><polygon fill="#000000" points="449.329,969,440.329,965,444.329,969,440.329,973,449.329,969" style="stroke: #000000; stroke-width: 0.5;"/><!--link _CMGrid to _CMGridInfo--><path d="M390.05,986.047 C405.917,998.118 427.964,1014.498 448,1028 C453.507,1031.711 459.447,1035.521 465.252,1039.145 " fill="none" id="_CMGrid-_CMGridInfo" style="stroke: #000000; stroke-width: 0.5;"/><polygon fill="#000000" points="469.655,1041.875,464.1146,1033.7323,465.4058,1039.2398,459.8983,1040.531,469.655,1041.875" style="stroke: #000000; stroke-width: 0.5;"/><!--link _CMGrid to _CMGridSidebar--><path d="M397.287,957.33 C413.017,951.062 432.802,943.179 450.697,936.048 " fill="none" id="_CMGrid-_CMGridSidebar" style="stroke: #000000; stroke-width: 0.5;"/><polygon fill="#000000" points="455.69,934.059,445.8486,933.6761,451.0455,935.9105,448.811,941.1074,455.69,934.059" style="stroke: #000000; stroke-width: 0.5;"/><!--link _CMGrid to _store--><path d="M397.09,980.895 C412.031,986.374 430.691,992.258 448,995 C550.712,1011.272 597.576,1017.928 678,952 C687.842,943.932 725.315,874.867 744.513,838.775 " fill="none" id="_CMGrid-_store" style="stroke: #000000; stroke-width: 0.5;"/><polygon fill="#000000" points="746.985,834.122,739.2303,840.1936,744.6393,838.5376,746.2953,843.9467,746.985,834.122" style="stroke: #000000; stroke-width: 0.5;"/><!--link _CMGridFooter to _store--><path d="M548.135,870.58 C584.412,873.311 635.228,873.842 678,862 C696.297,856.934 714.787,846.549 729.169,837.03 " fill="none" id="_CMGridFooter-_store" style="stroke: #000000; stroke-width: 0.5;"/><polygon fill="#000000" points="733.496,834.111,723.7984,835.8305,729.3516,836.9082,728.2739,842.4614,733.496,834.111" style="stroke: #000000; stroke-width: 0.5;"/><!--link _CMGridHeader to _store--><path d="M549.628,959.512 C587.16,950.59 638.914,934.545 678,908 C705.32,889.446 728.745,858.921 742.604,838.4 " fill="none" id="_CMGridHeader-_store" style="stroke: #000000; stroke-width: 0.5;"/><polygon fill="#000000" points="745.414,834.181,737.096,839.4546,742.6425,838.3426,743.7545,843.889,745.414,834.181" style="stroke: #000000; stroke-width: 0.5;"/><!--link _CMGridInfo to _store--><path d="M541.784,1060.84 C581.631,1060.324 641.187,1053.169 678,1019 C718.188,981.699 693.668,951.922 714,901 C722.676,879.27 734.824,855.506 743.824,838.817 " fill="none" id="_CMGridInfo-_store" style="stroke: #000000; stroke-width: 0.5;"/><polygon fill="#000000" points="746.273,834.305,738.4635,840.306,743.8874,838.6992,745.4942,844.123,746.273,834.305" style="stroke: #000000; stroke-width: 0.5;"/><!--link _CMGridSidebar to _store--><path d="M551.319,911.045 C587.858,905.405 637.602,894.886 678,876 C698.668,866.338 719.128,850.565 733.905,837.757 " fill="none" id="_CMGridSidebar-_store" style="stroke: #000000; stroke-width: 0.5;"/><polygon fill="#000000" points="737.917,834.231,728.5165,837.1687,734.1616,837.5321,733.7983,843.1773,737.917,834.231" style="stroke: #000000; stroke-width: 0.5;"/><!--link _CMSelection to _store--><path d="M640.548,578.217 C656.969,618.188 697.621,716.28 714,748 C722.44,764.345 733.258,782.055 741.8,795.441 " fill="none" id="_CMSelection-_store" style="stroke: #000000; stroke-width: 0.5;"/><polygon fill="#000000" points="744.604,799.806,743.1062,790.0717,741.9021,795.5989,736.3749,794.3948,744.604,799.806" style="stroke: #000000; stroke-width: 0.5;"/><!--link _CMTextInput to _store--><path d="M656.83,744.14 C677.265,759.154 706.984,780.988 728.557,796.837 " fill="none" id="_CMTextInput-_store" style="stroke: #000000; stroke-width: 0.5;"/><polygon fill="#000000" points="732.757,799.924,727.8712,791.3724,728.7272,796.9641,723.1355,797.8201,732.757,799.924" style="stroke: #000000; stroke-width: 0.5;"/><!--link _DT to _BaseTypes--><path d="M249.04,1266.921 C291.13,1276.252 403.491,1299 498.5,1299 C498.5,1299 498.5,1299 633.5,1299 C713.603,1299 749.938,1292.5316 800,1230 C857.574,1158.086 877.404,859.638 881.916,775.293 " fill="none" id="_DT-_BaseTypes" style="stroke: #000000; stroke-width: 0.5;"/><polygon fill="#000000" points="882.192,770.051,877.7244,778.8283,881.9291,775.0441,885.7133,779.2488,882.192,770.051" style="stroke: #000000; stroke-width: 0.5;"/><!--link _DT to _BKConstant--><path d="M248.35,1280.293 C265.286,1297.2593 293.256,1322.7416 322,1338 C394.122,1376.2852 416.846,1389 498.5,1389 C498.5,1389 498.5,1389 969,1389 C1080.33,1389 1084.63,477.397 1084.55,322.3 " fill="none" id="_DT-_BKConstant" style="stroke: #000000; stroke-width: 0.5;"/><polygon fill="#000000" points="1084.55,317.11,1080.5757,326.1214,1084.5643,322.11,1088.5757,326.0985,1084.55,317.11" style="stroke: #000000; stroke-width: 0.5;"/><!--link _DT to _CMGrid--><path d="M239.784,1245.923 C262.773,1195.483 330.362,1047.19 355.991,990.959 " fill="none" id="_DT-_CMGrid" style="stroke: #000000; stroke-width: 0.5;"/><polygon fill="#000000" points="358.195,986.125,350.8237,992.6568,356.1221,990.6751,358.1039,995.9734,358.195,986.125" style="stroke: #000000; stroke-width: 0.5;"/><!--link _DT to _GetBookInfo--><path d="M249.066,1259.712 C326.715,1244.626 644.312,1181.507 678,1152 C789.068,1054.715 763.085,985.961 800,843 C801.982,835.323 865.79,338.99 880.15,227.2 " fill="none" id="_DT-_GetBookInfo" style="stroke: #000000; stroke-width: 0.5;"/><polygon fill="#000000" points="880.796,222.17,875.6721,230.581,880.1532,227.1285,883.6057,231.6096,880.796,222.17" style="stroke: #000000; stroke-width: 0.5;"/><!--link _DT to _LocalStorage--><path d="M249.148,1263.523 C308.795,1265.059 512.588,1267.95 678,1242 C733.492,1233.294 764.22,1252.3 800,1209 C868.419,1126.201 813.271,831.977 836,727 C844.313,688.607 861.596,646.207 872.728,621.125 " fill="none" id="_DT-_LocalStorage" style="stroke: #000000; stroke-width: 0.5;"/><polygon fill="#000000" points="874.868,616.346,867.5395,622.9258,872.8249,620.9095,874.8411,626.1948,874.868,616.346" style="stroke: #000000; stroke-width: 0.5;"/><!--link _DT to _store--><path d="M243.603,1245.638 C259.011,1223.902 288.246,1186.979 322,1166 C357.053,1144.213 649.906,1090.233 678,1060 C728.798,1005.334 688.246,966.039 714,896 C721.433,875.786 733.135,854.293 742.302,838.837 " fill="none" id="_DT-_store" style="stroke: #000000; stroke-width: 0.5;"/><polygon fill="#000000" points="745.057,834.242,736.9974,839.9026,742.4852,838.5298,743.8579,844.0176,745.057,834.242" style="stroke: #000000; stroke-width: 0.5;"/><!--link _DT to _URLService--><path d="M249.104,1274.791 C266.626,1286.306 295.043,1303.4496 322,1313 C364.904,1328.2001 416.417,1336.1515 452.684,1340.1749 " fill="none" id="_DT-_URLService" style="stroke: #000000; stroke-width: 0.5;"/><polygon fill="#000000" points="457.922,1340.7404,449.4038,1335.7967,452.9509,1340.2033,448.5444,1343.7504,457.922,1340.7404" style="stroke: #000000; stroke-width: 0.5;"/><!--link <b>index</b> to _BK--><path d="M79.3699,1091.126 C102.234,1036.311 191.632,821.985 220.766,752.138 " fill="none" id="&lt;b&gt;index&lt;/b&gt;-_BK" style="stroke: #000000; stroke-width: 1.0;"/><polygon fill="#000000" points="222.758,747.363,215.6003,754.1281,220.8323,751.9773,222.9831,757.2093,222.758,747.363" style="stroke: #000000; stroke-width: 1.0;"/><!--link <b>index</b> to _DT--><path d="M99.7498,1107.024 C113.308,1109.86 129.294,1115.355 140,1126 C175.281,1161.082 144.386,1193.581 176,1232 C184.474,1242.298 197.322,1249.871 208.361,1254.952 " fill="none" id="&lt;b&gt;index&lt;/b&gt;-_DT" style="stroke: #000000; stroke-width: 1.0;"/><polygon fill="#000000" points="212.962,1256.978,206.3364,1249.6909,208.3858,1254.9635,203.1132,1257.0129,212.962,1256.978" style="stroke: #000000; stroke-width: 1.0;"/><!--link <b>index</b> to _OD--><path d="M98.6744,1108.957 C191.134,1127.532 516.416,1192.88 607.586,1211.196 " fill="none" id="&lt;b&gt;index&lt;/b&gt;-_OD" style="stroke: #000000; stroke-width: 1.0;"/><polygon fill="#000000" points="612.752,1212.234,604.7173,1206.5381,607.8501,1211.2482,603.14,1214.381,612.752,1212.234" style="stroke: #000000; stroke-width: 1.0;"/><!--link <b>index</b> to reducer--><path d="M73.8135,1090.848 C73.2536,1002.966 80.8199,495.601 322,205 C389.49,123.68 459.848,87.53 551,141 C597.94,168.54 619.547,234.52 627.568,266.72 " fill="none" id="&lt;b&gt;index&lt;/b&gt;-reducer" style="stroke: #000000; stroke-width: 1.0;"/><polygon fill="#000000" points="628.825,271.95,630.6054,262.2634,627.6537,267.0891,622.828,264.1375,628.825,271.95" style="stroke: #000000; stroke-width: 1.0;"/><!--link <b>index</b> to serviceWorker--><path d="M73,1117.052 C73,1121.337 73,1125.622 73,1129.907 " fill="none" id="&lt;b&gt;index&lt;/b&gt;-serviceWorker" style="stroke: #000000; stroke-width: 1.0;"/><polygon fill="#000000" points="73,1134.938,77,1125.938,73,1129.938,69,1125.938,73,1134.938" style="stroke: #000000; stroke-width: 1.0;"/><!--link <b>index</b> to _TD--><path d="M100.5143,1105.046 C195.894,1108.81 520.575,1121.623 609.067,1125.115 " fill="none" id="&lt;b&gt;index&lt;/b&gt;-_TD" style="stroke: #000000; stroke-width: 1.0;"/><polygon fill="#000000" points="614.311,1125.322,605.4757,1120.9702,609.3149,1125.1248,605.1603,1128.964,614.311,1125.322" style="stroke: #000000; stroke-width: 1.0;"/><!--link _LocalStorage to _BKConstant--><path d="M896.588,581.632 C931.034,530.007 1032.73,377.59 1070.32,321.25 " fill="none" id="_LocalStorage-_BKConstant" style="stroke: #000000; stroke-width: 0.5;"/><polygon fill="#000000" points="1073.13,317.04,1064.8095,322.3097,1070.3565,321.2003,1071.4659,326.7473,1073.13,317.04" style="stroke: #000000; stroke-width: 0.5;"/><!--link _OD to _BaseTypes--><path d="M652.088,1220.485 C686.206,1227.507 759.07,1236.695 800,1199 C863.28,1140.722 879.001,857.137 882.251,775.206 " fill="none" id="_OD-_BaseTypes" style="stroke: #000000; stroke-width: 0.5;"/><polygon fill="#000000" points="882.448,770.106,878.1039,778.945,882.2552,775.1023,886.0979,779.2536,882.448,770.106" style="stroke: #000000; stroke-width: 0.5;"/><!--link _OD to _LocalStorage--><path d="M652.182,1216.032 C687.47,1214.976 763.641,1207.153 800,1161 C859.888,1084.98 815.133,821.499 836,727 C844.47,688.642 861.707,646.231 872.787,621.137 " fill="none" id="_OD-_LocalStorage" style="stroke: #000000; stroke-width: 0.5;"/><polygon fill="#000000" points="874.916,616.356,867.6009,622.9507,872.8821,620.9236,874.9091,626.2049,874.916,616.356" style="stroke: #000000; stroke-width: 0.5;"/><!--link _OD to _store--><path d="M648.102,1198.887 C657.898,1186.581 670.361,1169.19 678,1152 C727.45,1040.72 747.612,894.159 753.769,839.135 " fill="none" id="_OD-_store" style="stroke: #000000; stroke-width: 0.5;"/><polygon fill="#000000" points="754.321,834.1,749.3626,842.6096,753.7753,839.0701,757.3148,843.4828,754.321,834.1" style="stroke: #000000; stroke-width: 0.5;"/><!--link reducer to _GetBookInfo--><path d="M658.796,276.89 C699.242,263.92 779.264,238.26 831.949,221.37 " fill="none" id="reducer-_GetBookInfo" style="stroke: #000000; stroke-width: 0.5;"/><polygon fill="#000000" points="836.96,219.76,827.169,218.6938,832.198,221.2841,829.6076,226.3131,836.96,219.76" style="stroke: #000000; stroke-width: 0.5;"/><!--link reducer to _LocalStorage--><path d="M658.51,293.27 C694.554,306.4 761.043,335.29 800,381 C850.633,440.413 872.073,533.948 879.577,576.537 " fill="none" id="reducer-_LocalStorage" style="stroke: #000000; stroke-width: 0.5;"/><polygon fill="#000000" points="880.464,581.715,882.8865,572.1687,879.6195,576.7868,875.0014,573.5199,880.464,581.715" style="stroke: #000000; stroke-width: 0.5;"/><!--link reducer to _store--><path d="M637.08,297.95 C645.12,327.32 664.928,401.304 678,464 C697.596,557.988 692.164,583.507 714,677 C723.888,719.338 739.354,767.715 748.502,795.083 " fill="none" id="reducer-_store" style="stroke: #000000; stroke-width: 0.5;"/><polygon fill="#000000" points="750.134,799.942,751.0588,790.1367,748.5413,795.2025,743.4755,792.685,750.134,799.942" style="stroke: #000000; stroke-width: 0.5;"/><!--link _store to _GetBookInfo--><path d="M763.829,799.934 C772.613,773.741 789.347,721.938 800,677 C840.589,505.782 870.761,295.32 880.026,227.32 " fill="none" id="_store-_GetBookInfo" style="stroke: #000000; stroke-width: 0.5;"/><polygon fill="#000000" points="880.708,222.29,875.5356,230.6713,880.0365,227.2447,883.4631,231.7457,880.708,222.29" style="stroke: #000000; stroke-width: 0.5;"/><!--link _store to _LocalStorage--><path d="M767.809,799.894 C790.354,760.575 845.83,663.825 870.649,620.54 " fill="none" id="_store-_LocalStorage" style="stroke: #000000; stroke-width: 0.5;"/><polygon fill="#000000" points="873.237,616.027,865.2899,621.8445,870.7497,620.3644,872.2298,625.8242,873.237,616.027" style="stroke: #000000; stroke-width: 0.5;"/><!--link _TD to _BaseTypes--><path d="M650.553,1116.002 C659.283,1110.435 669.775,1103.019 678,1095 C780.446,995.117 851.098,833.584 874.515,775.061 " fill="none" id="_TD-_BaseTypes" style="stroke: #000000; stroke-width: 0.5;"/><polygon fill="#000000" points="876.378,770.373,869.3384,777.2609,874.5324,775.0199,876.7734,780.2139,876.378,770.373" style="stroke: #000000; stroke-width: 0.5;"/><!--link _TD to _LocalStorage--><path d="M650.861,1117.55 C660.117,1112.243 671.007,1104.583 678,1095 C710.071,1051.052 691.179,1027.388 714,978 C743.841,913.421 770.081,907.543 800,843 C822.702,794.025 818.691,778.131 836,727 C848.667,689.582 864.791,646.557 874.482,621.134 " fill="none" id="_TD-_LocalStorage" style="stroke: #000000; stroke-width: 0.5;"/><polygon fill="#000000" points="876.332,616.291,869.384,623.2713,874.5479,620.9619,876.8574,626.1258,876.332,616.291" style="stroke: #000000; stroke-width: 0.5;"/><!--link _TD to _store--><path d="M650.85,1118.096 C660.342,1112.878 671.467,1105.128 678,1095 C725.537,1021.308 686.118,984.144 714,901 C721.439,878.816 733.737,855.107 743.107,838.554 " fill="none" id="_TD-_store" style="stroke: #000000; stroke-width: 0.5;"/><polygon fill="#000000" points="745.666,834.082,737.7234,839.9057,743.1821,838.4214,744.6664,843.88,745.666,834.082" style="stroke: #000000; stroke-width: 0.5;"/><!--link _template to _BaseTypes--><path d="M789.436,616.274 C793.189,618.955 796.814,621.88 800,625 C832.736,657.056 859.13,704.238 872.805,731.465 " fill="none" id="_template-_BaseTypes" style="stroke: #000000; stroke-width: 1.0;"/><polygon fill="#000000" points="875.049,735.984,874.6269,726.1442,872.8244,731.5062,867.4624,729.7036,875.049,735.984" style="stroke: #000000; stroke-width: 1.0;"/><!--link _template to _LocalStorage--><path d="M796.183,599 C807.017,599 819.005,599 830.527,599 " fill="none" id="_template-_LocalStorage" style="stroke: #000000; stroke-width: 1.0;"/><polygon fill="#000000" points="835.782,599,826.782,595,830.782,599,826.782,603,835.782,599" style="stroke: #000000; stroke-width: 1.0;"/><!--link _template to _store--><path d="M717.72,613.52 C709.079,618.632 701.018,625.336 696,634 C688.427,647.076 693.082,653.173 696,668 C705.336,715.445 729.909,766.807 744.864,795.127 " fill="none" id="_template-_store" style="stroke: #000000; stroke-width: 1.0;"/><polygon fill="#000000" points="747.358,799.806,746.6533,789.9824,745.0056,795.394,739.594,793.7463,747.358,799.806" style="stroke: #000000; stroke-width: 1.0;"/><!--link _template2 to _BaseTypes--><path d="M781.771,668.086 C787.783,672.532 794.183,677.375 800,682 C820.662,698.428 843.394,717.983 859.837,732.407 " fill="none" id="_template2-_BaseTypes" style="stroke: #000000; stroke-width: 1.0;"/><polygon fill="#000000" points="863.876,735.959,859.7573,727.0127,860.1206,732.6579,854.4755,733.0213,863.876,735.959" style="stroke: #000000; stroke-width: 1.0;"/><!--link _template2 to _LocalStorage--><path d="M798.93,633.973 C811.124,628.9 824.567,623.308 837.059,618.111 " fill="none" id="_template2-_LocalStorage" style="stroke: #000000; stroke-width: 1.0;"/><polygon fill="#000000" points="841.978,616.065,832.132,615.8284,837.3615,617.9853,835.2045,623.2148,841.978,616.065" style="stroke: #000000; stroke-width: 1.0;"/><!--link _template2 to _store--><path d="M757,668.149 C757,710.324 757,752.498 757,794.673 " fill="none" id="_template2-_store" style="stroke: #000000; stroke-width: 1.0;"/><polygon fill="#000000" points="757,799.816,761,790.816,757,794.816,753,790.816,757,799.816" style="stroke: #000000; stroke-width: 1.0;"/><!--link _constant to <b>react-app-env.d</b>--><!--link _constant to <b>setupTests</b>--><script type="text/plantuml"><![CDATA[
@startuml

scale max 1920 width
left to right direction

skinparam nodesep 18
skinparam ranksep 36
skinparam monochrome true
skinparam shadowing false
skinparam defaultFontName Tahoma
skinparam defaultFontSize 12
skinparam roundCorner 6
skinparam dpi 150
skinparam arrowColor black
skinparam arrowThickness 0.5
skinparam packageTitleAlignment left

skinparam usecase {
  borderThickness 0.5
}

skinparam rectangle {
  borderThickness 0.5
}

skinparam component {
  borderThickness 1
}


rectangle "BaseTypes" as _BaseTypes
rectangle "BK" as _BK
rectangle "BKCondition" as _BKCondition
rectangle "BKConstant" as _BKConstant
rectangle "BKItems" as _BKItems
rectangle "BKOption" as _BKOption
rectangle "BKService" as _BKService
rectangle "CMGrid" as _CMGrid
rectangle "CMGridFooter" as _CMGridFooter
rectangle "CMGridHeader" as _CMGridHeader
rectangle "CMGridInfo" as _CMGridInfo
rectangle "CMGridSidebar" as _CMGridSidebar
rectangle "CMSelection" as _CMSelection
rectangle "CMTextInput" as _CMTextInput
rectangle "<b>constant</b>" as _constant
(data)
rectangle "DT" as _DT
rectangle "GetBookInfo" as _GetBookInfo
(<b>index</b>)
rectangle "LocalStorage" as _LocalStorage
rectangle "OD" as _OD
rectangle "ProcessService" as _ProcessService
(<b>react-app-env.d</b>)
(reducer)
(serviceWorker)
(<b>setupTests</b>)
rectangle "store" as _store
rectangle "TD" as _TD
rectangle "<b>template</b>" as _template
rectangle "<b>template2</b>" as _template2
rectangle "URLService" as _URLService


_BK --> _BKCondition
_BK --> _BKItems
_BK --> _BKOption
_BK --> _CMGrid
_BK --> (data)
_BK ----> _GetBookInfo
_BK --> _store
_BKCondition ----> _BaseTypes
_BKCondition --> _BKConstant
_BKCondition --> _BKService
_BKCondition ---> _CMSelection
_BKCondition ---> _CMTextInput
_BKCondition ----> _GetBookInfo
_BKCondition ----> _LocalStorage
_BKCondition ---> _store
_BKConstant ----> _ProcessService
_BKItems ----> _BaseTypes
_BKItems --> _BKConstant
_BKItems --> _BKService
_BKItems ---> _CMSelection
_BKItems ----> _GetBookInfo
_BKItems ----> _LocalStorage
_BKItems ---> _store
_BKOption ----> _BaseTypes
_BKOption --> _BKConstant
_BKOption ---> _CMSelection
_BKOption ----> _LocalStorage
_BKOption ---> _store
_BKService --> _BKConstant
_BKService ----> _GetBookInfo
_BKService ---> _store
_CMGrid --> _CMGridFooter
_CMGrid --> _CMGridHeader
_CMGrid --> _CMGridInfo
_CMGrid --> _CMGridSidebar
_CMGrid --> _store
_CMGridFooter ---> _store
_CMGridHeader ---> _store
_CMGridInfo ---> _store
_CMGridSidebar ---> _store
_CMSelection --> _store
_CMTextInput --> _store
_DT ---> _BaseTypes
_DT ---> _BKConstant
_DT --> _CMGrid
_DT ----> _GetBookInfo
_DT ---> _LocalStorage
_DT --> _store
_DT ---> _URLService
(<b>index</b>) --[thickness=1]> _BK
(<b>index</b>) --[thickness=1]> _DT
(<b>index</b>) --[thickness=1]> _OD
(<b>index</b>) -[thickness=1]> (reducer)
(<b>index</b>) -[thickness=1]> (serviceWorker)
(<b>index</b>) --[thickness=1]> _TD
_LocalStorage ----> _BKConstant
_OD ---> _BaseTypes
_OD ---> _LocalStorage
_OD --> _store
(reducer) --> _GetBookInfo
(reducer) --> _LocalStorage
(reducer) --> _store
_store --> _GetBookInfo
_store --> _LocalStorage
_TD ---> _BaseTypes
_TD ---> _LocalStorage
_TD --> _store
_template --[thickness=1]> _BaseTypes
_template --[thickness=1]> _LocalStorage
_template -[thickness=1]> _store
_template2 --[thickness=1]> _BaseTypes
_template2 --[thickness=1]> _LocalStorage
_template2 -[thickness=1]> _store

@enduml


' View and edit on https://arkit.pro
]]></script></g></svg>