<?xml version="1.0" encoding="UTF-8" standalone="no"?><svg xmlns="http://www.w3.org/2000/svg" xmlns:xlink="http://www.w3.org/1999/xlink" contentScriptType="application/ecmascript" contentStyleType="text/css" height="733px" preserveAspectRatio="none" style="width:963px;height:733px;" version="1.1" viewBox="0 0 963 733" width="963px" zoomAndPan="magnify"><defs/><g><!--entity _BK--><rect fill="#F8F8F8" height="34.4844" rx="3" ry="3" style="stroke: #000000; stroke-width: 0.5;" width="35" x="199.5" y="303"/><text fill="#000000" font-family="Tahoma, sans-serif" font-size="12" lengthAdjust="spacingAndGlyphs" textLength="15" x="209.5" y="325.0059">BK</text><!--entity _BKCondition--><rect fill="#F8F8F8" height="34.4844" rx="3" ry="3" style="stroke: #000000; stroke-width: 0.5;" width="90" x="294" y="247"/><text fill="#000000" font-family="Tahoma, sans-serif" font-size="12" lengthAdjust="spacingAndGlyphs" textLength="70" x="304" y="269.0059">BKCondition</text><!--entity _BKConstant--><rect fill="#F8F8F8" height="34.4844" rx="3" ry="3" style="stroke: #000000; stroke-width: 0.5;" width="87" x="557" y="169"/><text fill="#000000" font-family="Tahoma, sans-serif" font-size="12" lengthAdjust="spacingAndGlyphs" textLength="67" x="567" y="191.0059">BKConstant</text><!--entity _BKItems--><rect fill="#F8F8F8" height="34.4844" rx="3" ry="3" style="stroke: #000000; stroke-width: 0.5;" width="69" x="304.5" y="156"/><text fill="#000000" font-family="Tahoma, sans-serif" font-size="12" lengthAdjust="spacingAndGlyphs" textLength="49" x="314.5" y="178.0059">BKItems</text><!--entity _BKOption--><rect fill="#F8F8F8" height="34.4844" rx="3" ry="3" style="stroke: #000000; stroke-width: 0.5;" width="74" x="302" y="86"/><text fill="#000000" font-family="Tahoma, sans-serif" font-size="12" lengthAdjust="spacingAndGlyphs" textLength="54" x="312" y="108.0059">BKOption</text><!--entity _BKService--><rect fill="#F8F8F8" height="34.4844" rx="3" ry="3" style="stroke: #000000; stroke-width: 0.5;" width="77" x="431" y="199"/><text fill="#000000" font-family="Tahoma, sans-serif" font-size="12" lengthAdjust="spacingAndGlyphs" textLength="57" x="441" y="221.0059">BKService</text><!--entity _CMGrid--><rect fill="#F8F8F8" height="34.4844" rx="3" ry="3" style="stroke: #000000; stroke-width: 0.5;" width="60" x="309" y="466"/><text fill="#000000" font-family="Tahoma, sans-serif" font-size="12" lengthAdjust="spacingAndGlyphs" textLength="40" x="319" y="488.0059">CMGrid</text><!--entity _CMGridFooter--><rect fill="#F8F8F8" height="34.4844" rx="3" ry="3" style="stroke: #000000; stroke-width: 0.5;" width="97" x="421" y="441"/><text fill="#000000" font-family="Tahoma, sans-serif" font-size="12" lengthAdjust="spacingAndGlyphs" textLength="77" x="431" y="463.0059">CMGridFooter</text><!--entity _CMGridHeader--><rect fill="#F8F8F8" height="34.4844" rx="3" ry="3" style="stroke: #000000; stroke-width: 0.5;" width="100" x="419.5" y="492"/><text fill="#000000" font-family="Tahoma, sans-serif" font-size="12" lengthAdjust="spacingAndGlyphs" textLength="80" x="429.5" y="514.0059">CMGridHeader</text><!--entity _CMGridInfo--><rect fill="#F8F8F8" height="34.4844" rx="3" ry="3" style="stroke: #000000; stroke-width: 0.5;" width="84" x="427.5" y="543"/><text fill="#000000" font-family="Tahoma, sans-serif" font-size="12" lengthAdjust="spacingAndGlyphs" textLength="64" x="437.5" y="565.0059">CMGridInfo</text><!--entity _CMGridSidebar--><rect fill="#F8F8F8" height="34.4844" rx="3" ry="3" style="stroke: #000000; stroke-width: 0.5;" width="103" x="418" y="390"/><text fill="#000000" font-family="Tahoma, sans-serif" font-size="12" lengthAdjust="spacingAndGlyphs" textLength="83" x="428" y="412.0059">CMGridSidebar</text><!--entity _CMSelection--><rect fill="#F8F8F8" height="34.4844" rx="3" ry="3" style="stroke: #000000; stroke-width: 0.5;" width="91" x="555" y="16"/><text fill="#000000" font-family="Tahoma, sans-serif" font-size="12" lengthAdjust="spacingAndGlyphs" textLength="71" x="565" y="38.0059">CMSelection</text><!--entity _CMTextInput--><rect fill="#F8F8F8" height="34.4844" rx="3" ry="3" style="stroke: #000000; stroke-width: 0.5;" width="91" x="555" y="269"/><text fill="#000000" font-family="Tahoma, sans-serif" font-size="12" lengthAdjust="spacingAndGlyphs" textLength="71" x="565" y="291.0059">CMTextInput</text><!--entity _constant--><rect fill="#F8F8F8" height="34.4844" rx="3" ry="3" style="stroke: #000000; stroke-width: 0.5;" width="79" x="33.5" y="201"/><text fill="#000000" font-family="Tahoma, sans-serif" font-size="12" font-weight="bold" lengthAdjust="spacingAndGlyphs" textLength="59" x="43.5" y="223.0059">constant</text><ellipse cx="339.1777" cy="320.242" fill="#F8F8F8" rx="20.6777" ry="13.242" style="stroke: #383838; stroke-width: 0.5;"/><text fill="#000000" font-family="Tahoma, sans-serif" font-size="12" lengthAdjust="spacingAndGlyphs" textLength="25" x="326.6777" y="323.9842">data</text><!--entity _DT--><rect fill="#F8F8F8" height="34.4844" rx="3" ry="3" style="stroke: #000000; stroke-width: 0.5;" width="36" x="199" y="586"/><text fill="#000000" font-family="Tahoma, sans-serif" font-size="12" lengthAdjust="spacingAndGlyphs" textLength="16" x="209" y="608.0059">DT</text><!--entity _GetBookInfo--><rect fill="#F8F8F8" height="34.4844" rx="3" ry="3" style="stroke: #000000; stroke-width: 0.5;" width="94" x="715" y="312"/><text fill="#000000" font-family="Tahoma, sans-serif" font-size="12" lengthAdjust="spacingAndGlyphs" textLength="74" x="725" y="334.0059">GetBookInfo</text><ellipse cx="73.2487" cy="629.242" fill="#F8F8F8" rx="27.7487" ry="13.242" style="stroke: #383838; stroke-width: 0.5;"/><text fill="#000000" font-family="Tahoma, sans-serif" font-size="12" font-weight="bold" lengthAdjust="spacingAndGlyphs" textLength="35" x="55.7487" y="632.9842">index</text><!--entity _OD--><rect fill="#F8F8F8" height="34.4844" rx="3" ry="3" style="stroke: #000000; stroke-width: 0.5;" width="39" x="197.5" y="637"/><text fill="#000000" font-family="Tahoma, sans-serif" font-size="12" lengthAdjust="spacingAndGlyphs" textLength="19" x="207.5" y="659.0059">OD</text><!--entity _ProcessService--><rect fill="#F8F8F8" height="34.4844" rx="3" ry="3" style="stroke: #000000; stroke-width: 0.5;" width="109" x="843" y="86"/><text fill="#000000" font-family="Tahoma, sans-serif" font-size="12" lengthAdjust="spacingAndGlyphs" textLength="89" x="853" y="108.0059">ProcessService</text><ellipse cx="72.7768" cy="267.7554" fill="#F8F8F8" rx="66.7768" ry="15.7554" style="stroke: #383838; stroke-width: 0.5;"/><text fill="#000000" font-family="Tahoma, sans-serif" font-size="12" font-weight="bold" lengthAdjust="spacingAndGlyphs" textLength="105" x="20.2768" y="271.4976">react-app-env.d</text><ellipse cx="72.8275" cy="672.8655" fill="#F8F8F8" rx="57.3275" ry="13.8655" style="stroke: #383838; stroke-width: 0.5;"/><text fill="#000000" font-family="Tahoma, sans-serif" font-size="12" lengthAdjust="spacingAndGlyphs" textLength="81" x="32.3275" y="676.6077">serviceWorker</text><ellipse cx="72.771" cy="314.8542" fill="#F8F8F8" rx="54.771" ry="13.3542" style="stroke: #383838; stroke-width: 0.5;"/><text fill="#000000" font-family="Tahoma, sans-serif" font-size="12" font-weight="bold" lengthAdjust="spacingAndGlyphs" textLength="74" x="35.771" y="318.5964">setupTests</text><!--entity _TD--><rect fill="#F8F8F8" height="34.4844" rx="3" ry="3" style="stroke: #000000; stroke-width: 0.5;" width="36" x="199" y="688"/><text fill="#000000" font-family="Tahoma, sans-serif" font-size="12" lengthAdjust="spacingAndGlyphs" textLength="16" x="209" y="710.0059">TD</text><!--entity _template--><rect fill="#F8F8F8" height="34.4844" rx="3" ry="3" style="stroke: #000000; stroke-width: 0.5;" width="78" x="178" y="201"/><text fill="#000000" font-family="Tahoma, sans-serif" font-size="12" font-weight="bold" lengthAdjust="spacingAndGlyphs" textLength="58" x="188" y="223.0059">template</text><!--entity _template2--><rect fill="#F8F8F8" height="34.4844" rx="3" ry="3" style="stroke: #000000; stroke-width: 0.5;" width="86" x="174" y="252"/><text fill="#000000" font-family="Tahoma, sans-serif" font-size="12" font-weight="bold" lengthAdjust="spacingAndGlyphs" textLength="66" x="184" y="274.0059">template2</text><!--entity _URLService--><rect fill="#F8F8F8" height="34.4844" rx="3" ry="3" style="stroke: #000000; stroke-width: 0.5;" width="83" x="428" y="664"/><text fill="#000000" font-family="Tahoma, sans-serif" font-size="12" lengthAdjust="spacingAndGlyphs" textLength="63" x="438" y="686.0059">URLService</text><!--link _BK to _BKCondition--><path d="M234.685,312.213 C250.611,304.781 275.255,293.281 296.48,283.376 " fill="none" id="_BK-_BKCondition" style="stroke: #000000; stroke-width: 0.5;"/><polygon fill="#000000" points="301.232,281.159,291.3848,281.3396,296.7009,283.2731,294.7674,288.5893,301.232,281.159" style="stroke: #000000; stroke-width: 0.5;"/><!--link _BK to _BKItems--><path d="M234.843,312.399 C243.088,308.11 252.768,302.169 260,295 C280.679,274.501 278.365,263.563 294,239 C303.567,223.97 314.702,207.275 323.376,194.437 " fill="none" id="_BK-_BKItems" style="stroke: #000000; stroke-width: 0.5;"/><polygon fill="#000000" points="326.218,190.239,317.8601,195.4492,323.4149,194.3794,324.4847,199.9341,326.218,190.239" style="stroke: #000000; stroke-width: 0.5;"/><!--link _BK to _BKOption--><path d="M234.62,313.891 C243.429,309.832 253.702,303.64 260,295 C299.754,240.459 261.312,206.047 294,147 C298.68,138.547 305.46,130.63 312.302,123.906 " fill="none" id="_BK-_BKOption" style="stroke: #000000; stroke-width: 0.5;"/><polygon fill="#000000" points="316.096,120.297,306.8179,123.6011,312.473,123.7428,312.3313,129.3979,316.096,120.297" style="stroke: #000000; stroke-width: 0.5;"/><!--link _BK to _CMGrid--><path d="M230.615,337.136 C252.614,367.018 297.947,428.595 322.075,461.368 " fill="none" id="_BK-_CMGrid" style="stroke: #000000; stroke-width: 0.5;"/><polygon fill="#000000" points="325.193,465.603,323.0776,455.984,322.2283,461.5768,316.6356,460.7275,325.193,465.603" style="stroke: #000000; stroke-width: 0.5;"/><!--link _BK to data--><path d="M234.685,320 C255.042,320 289.641,320 313.139,320 " fill="none" id="_BK-data" style="stroke: #000000; stroke-width: 0.5;"/><polygon fill="#000000" points="318.268,320,309.268,316,313.268,320,309.268,324,318.268,320" style="stroke: #000000; stroke-width: 0.5;"/><!--link _BK to _GetBookInfo--><path d="M234.715,325.658 C249.989,330.63 273.283,337.723 294,342 C370.555,357.805 390.331,364 468.5,364 C468.5,364 468.5,364 601.5,364 C638.367,364 678.937,354.968 709.934,346.081 " fill="none" id="_BK-_GetBookInfo" style="stroke: #000000; stroke-width: 0.5;"/><polygon fill="#000000" points="714.824,344.657,705.0647,343.3316,710.0232,346.0544,707.3005,351.0129,714.824,344.657" style="stroke: #000000; stroke-width: 0.5;"/><!--link _BKCondition to _BKConstant--><path d="M384.256,264.655 C421.839,263.814 476.589,259.241 521,242 C541.827,233.915 562.272,219.041 577.074,206.654 " fill="none" id="_BKCondition-_BKConstant" style="stroke: #000000; stroke-width: 0.5;"/><polygon fill="#000000" points="581.095,203.233,571.6481,206.018,577.2866,206.4728,576.8318,212.1114,581.095,203.233" style="stroke: #000000; stroke-width: 0.5;"/><!--link _BKCondition to _BKService--><path d="M384.222,247.481 C397.671,242.457 412.421,236.948 425.77,231.962 " fill="none" id="_BKCondition-_BKService" style="stroke: #000000; stroke-width: 0.5;"/><polygon fill="#000000" points="430.619,230.15,420.7883,229.5526,425.9352,231.8998,423.588,237.0467,430.619,230.15" style="stroke: #000000; stroke-width: 0.5;"/><!--link _BKCondition to _CMSelection--><path d="M357.749,246.716 C373.418,231.566 396.974,209.05 418,190 C473.186,140.002 539.786,83.288 574.961,53.609 " fill="none" id="_BKCondition-_CMSelection" style="stroke: #000000; stroke-width: 0.5;"/><polygon fill="#000000" points="579.092,50.126,569.6328,52.8688,575.2692,53.3488,574.7892,58.9852,579.092,50.126" style="stroke: #000000; stroke-width: 0.5;"/><!--link _BKCondition to _CMTextInput--><path d="M384.119,268.721 C395.177,269.85 407.018,271.013 418,272 C462.403,275.989 512.98,279.833 549.445,282.48 " fill="none" id="_BKCondition-_CMTextInput" style="stroke: #000000; stroke-width: 0.5;"/><polygon fill="#000000" points="554.721,282.862,546.0337,278.2219,549.7341,282.5006,545.4554,286.201,554.721,282.862" style="stroke: #000000; stroke-width: 0.5;"/><!--link _BKCondition to _GetBookInfo--><path d="M384.045,275.698 C395.104,278.524 406.965,281.459 418,284 C478.563,297.944 493.478,303.206 555,312 C607.4,319.49 667.806,323.992 709.595,326.464 " fill="none" id="_BKCondition-_GetBookInfo" style="stroke: #000000; stroke-width: 0.5;"/><polygon fill="#000000" points="714.598,326.755,705.8464,322.2372,709.6065,326.4636,705.3802,330.2236,714.598,326.755" style="stroke: #000000; stroke-width: 0.5;"/><!--link _BKConstant to _ProcessService--><path d="M644.08,174.02 C695.038,159.683 780.634,135.6 837.831,119.507 " fill="none" id="_BKConstant-_ProcessService" style="stroke: #000000; stroke-width: 0.5;"/><polygon fill="#000000" points="842.93,118.072,833.183,116.6594,838.1169,119.4263,835.3499,124.3603,842.93,118.072" style="stroke: #000000; stroke-width: 0.5;"/><!--link _BKItems to _BKConstant--><path d="M373.659,174.686 C419.003,176.958 499.967,181.014 551.635,183.602 " fill="none" id="_BKItems-_BKConstant" style="stroke: #000000; stroke-width: 0.5;"/><polygon fill="#000000" points="556.852,183.863,548.0632,179.4181,551.8583,183.613,547.6633,187.408,556.852,183.863" style="stroke: #000000; stroke-width: 0.5;"/><!--link _BKItems to _BKService--><path d="M373.762,184.298 C389.666,189.62 408.814,196.027 425.721,201.685 " fill="none" id="_BKItems-_BKService" style="stroke: #000000; stroke-width: 0.5;"/><polygon fill="#000000" points="430.89,203.414,423.6252,196.764,426.1486,201.8269,421.0857,204.3503,430.89,203.414" style="stroke: #000000; stroke-width: 0.5;"/><!--link _BKItems to _CMSelection--><path d="M359.496,155.857 C367.748,147.937 377.039,138.065 384,128 C404.357,98.562 389.033,76.022 418,55 C455.862,27.524 510.286,24.392 549.653,26.682 " fill="none" id="_BKItems-_CMSelection" style="stroke: #000000; stroke-width: 0.5;"/><polygon fill="#000000" points="554.862,27.021,546.1417,22.4431,549.8726,26.6952,545.6205,30.4261,554.862,27.021" style="stroke: #000000; stroke-width: 0.5;"/><!--link _BKItems to _GetBookInfo--><path d="M373.655,161.137 C432.715,142.485 557.17,113.001 646,160 C705.442,191.45 739.894,268.937 753.783,307.075 " fill="none" id="_BKItems-_GetBookInfo" style="stroke: #000000; stroke-width: 0.5;"/><polygon fill="#000000" points="755.53,311.967,756.2686,302.1459,753.8477,307.2585,748.735,304.8376,755.53,311.967" style="stroke: #000000; stroke-width: 0.5;"/><!--link _BKOption to _BKConstant--><path d="M376.082,114.541 C421.953,129.212 501.266,154.58 552.011,170.811 " fill="none" id="_BKOption-_BKConstant" style="stroke: #000000; stroke-width: 0.5;"/><polygon fill="#000000" points="556.831,172.352,549.4767,165.8011,552.0685,170.8293,547.0403,173.4211,556.831,172.352" style="stroke: #000000; stroke-width: 0.5;"/><!--link _BKOption to _CMSelection--><path d="M350.048,85.711 C362.874,65.567 387.146,33.345 418,20 C459.763,1.937 511.986,8.315 549.679,17.349 " fill="none" id="_BKOption-_CMSelection" style="stroke: #000000; stroke-width: 0.5;"/><polygon fill="#000000" points="554.665,18.58,546.8846,12.5414,549.8104,17.3828,544.969,20.3087,554.665,18.58" style="stroke: #000000; stroke-width: 0.5;"/><!--link _BKService to _BKConstant--><path d="M508.159,207.242 C521.671,204.1 537.095,200.513 551.373,197.192 " fill="none" id="_BKService-_BKConstant" style="stroke: #000000; stroke-width: 0.5;"/><polygon fill="#000000" points="556.576,195.982,546.9038,194.1252,551.706,197.1149,548.7163,201.9171,556.576,195.982" style="stroke: #000000; stroke-width: 0.5;"/><!--link _BKService to _GetBookInfo--><path d="M508.122,222.443 C544.347,229.385 600.227,242.051 646,261 C676.94,273.809 709.559,293.798 732.122,308.795 " fill="none" id="_BKService-_GetBookInfo" style="stroke: #000000; stroke-width: 0.5;"/><polygon fill="#000000" points="736.497,311.724,731.2438,303.3931,732.3423,308.9423,726.7931,310.0407,736.497,311.724" style="stroke: #000000; stroke-width: 0.5;"/><!--link _CMGrid to _CMGridFooter--><path d="M369.159,477.327 C382.983,474.638 399.933,471.34 415.892,468.235 " fill="none" id="_CMGrid-_CMGridFooter" style="stroke: #000000; stroke-width: 0.5;"/><polygon fill="#000000" points="420.808,467.279,411.2093,465.0733,415.9002,468.2348,412.7387,472.9257,420.808,467.279" style="stroke: #000000; stroke-width: 0.5;"/><!--link _CMGrid to _CMGridHeader--><path d="M369.159,488.9 C382.464,491.592 398.666,494.87 414.093,497.992 " fill="none" id="_CMGrid-_CMGridHeader" style="stroke: #000000; stroke-width: 0.5;"/><polygon fill="#000000" points="419.289,499.043,411.2607,493.3381,414.3883,498.0517,409.6746,501.1793,419.289,499.043" style="stroke: #000000; stroke-width: 0.5;"/><!--link _CMGrid to _CMGridInfo--><path d="M364.079,500.218 C379.241,510.765 399.398,524.254 418,535 C421.203,536.85 424.562,538.7 427.96,540.507 " fill="none" id="_CMGrid-_CMGridInfo" style="stroke: #000000; stroke-width: 0.5;"/><polygon fill="#000000" points="432.608,542.944,426.4939,535.2228,428.1795,540.6226,422.7797,542.3083,432.608,542.944" style="stroke: #000000; stroke-width: 0.5;"/><!--link _CMGrid to _CMGridSidebar--><path d="M365.269,465.942 C380.356,455.975 400.021,443.36 418,433 C421.746,430.841 425.69,428.66 429.655,426.526 " fill="none" id="_CMGrid-_CMGridSidebar" style="stroke: #000000; stroke-width: 0.5;"/><polygon fill="#000000" points="434.308,424.047,424.484,424.7468,429.8948,426.3972,428.2443,431.8079,434.308,424.047" style="stroke: #000000; stroke-width: 0.5;"/><!--link _DT to _BKConstant--><path d="M235.265,604.799 C293.284,610.438 479.902,625.1638 521,586 C573.57,535.904 532.166,329.933 555,261 C561.429,241.593 573.456,221.792 583.388,207.413 " fill="none" id="_DT-_BKConstant" style="stroke: #000000; stroke-width: 0.5;"/><polygon fill="#000000" points="586.394,203.131,577.9485,208.198,583.5207,207.223,584.4957,212.7952,586.394,203.131" style="stroke: #000000; stroke-width: 0.5;"/><!--link _DT to _CMGrid--><path d="M235.193,585.807 C256.847,564.153 294.021,526.979 317.237,503.763 " fill="none" id="_DT-_CMGrid" style="stroke: #000000; stroke-width: 0.5;"/><polygon fill="#000000" points="320.839,500.161,311.6466,503.6965,317.3035,503.6965,317.3035,509.3534,320.839,500.161" style="stroke: #000000; stroke-width: 0.5;"/><!--link _DT to _GetBookInfo--><path d="M235.195,607.083 C275.631,616.316 380.017,638 468.5,638 C468.5,638 468.5,638 601.5,638 C730.65,638 755.332,422.221 759.957,351.295 " fill="none" id="_DT-_GetBookInfo" style="stroke: #000000; stroke-width: 0.5;"/><polygon fill="#000000" points="760.279,346.053,755.7363,354.7916,759.9733,351.0436,763.7213,355.2807,760.279,346.053" style="stroke: #000000; stroke-width: 0.5;"/><!--link _DT to _URLService--><path d="M235.213,613.549 C242.831,618.244 251.884,623.863 260,629 C275.208,638.6262 277.234,644.4532 294,651 C335.756,667.3054 386.564,674.7691 422.562,678.1733 " fill="none" id="_DT-_URLService" style="stroke: #000000; stroke-width: 0.5;"/><polygon fill="#000000" points="427.762,678.6467,419.1626,673.8455,422.7827,678.1924,418.4358,681.8125,427.762,678.6467" style="stroke: #000000; stroke-width: 0.5;"/><!--link <b>index</b> to _BK--><path d="M79.9208,616.116 C101.772,568.567 178.051,402.578 205.804,342.186 " fill="none" id="&lt;b&gt;index&lt;/b&gt;-_BK" style="stroke: #000000; stroke-width: 1.0;"/><polygon fill="#000000" points="208.028,337.348,200.6359,343.8562,205.9406,341.8914,207.9054,347.1961,208.028,337.348" style="stroke: #000000; stroke-width: 1.0;"/><!--link <b>index</b> to _DT--><path d="M99.0599,624.4116 C125.82,619.512 167.837,611.819 193.551,607.11 " fill="none" id="&lt;b&gt;index&lt;/b&gt;-_DT" style="stroke: #000000; stroke-width: 1.0;"/><polygon fill="#000000" points="198.779,606.153,189.2054,603.8409,193.8609,607.0543,190.6475,611.7099,198.779,606.153" style="stroke: #000000; stroke-width: 1.0;"/><!--link <b>index</b> to _OD--><path d="M99.0599,633.412 C125.334,638.0378 166.319,645.2533 192.136,649.7986 " fill="none" id="&lt;b&gt;index&lt;/b&gt;-_OD" style="stroke: #000000; stroke-width: 1.0;"/><polygon fill="#000000" points="197.088,650.6705,188.9181,645.1703,192.1638,649.8034,187.5307,653.049,197.088,650.6705" style="stroke: #000000; stroke-width: 1.0;"/><!--link <b>index</b> to serviceWorker--><path d="M73,642.084 C73,645.9391 73,649.7942 73,653.6493 " fill="none" id="&lt;b&gt;index&lt;/b&gt;-serviceWorker" style="stroke: #000000; stroke-width: 1.0;"/><polygon fill="#000000" points="73,658.9062,77,649.9062,73,653.9062,69,649.9062,73,658.9062" style="stroke: #000000; stroke-width: 1.0;"/><!--link <b>index</b> to _TD--><path d="M98.1441,634.6425 C111.066,638.245 126.958,643.6367 140,651 C157.295,660.7646 157.853,668.4348 174,680 C180.39,684.5768 187.654,689.1144 194.323,693.0421 " fill="none" id="&lt;b&gt;index&lt;/b&gt;-_TD" style="stroke: #000000; stroke-width: 1.0;"/><polygon fill="#000000" points="198.828,695.6568,193.0523,687.6792,194.5037,693.1467,189.0362,694.5981,198.828,695.6568" style="stroke: #000000; stroke-width: 1.0;"/><!--link _constant to <b>react-app-env.d</b>--><!--link <b>react-app-env.d</b> to <b>setupTests</b>--><!--link _constant to _template--><!--link _template to _template2--><script type="text/plantuml"><![CDATA[
@startuml

scale max 1920 width
left to right direction

skinparam nodesep 17
skinparam ranksep 34
skinparam monochrome true
skinparam shadowing false
skinparam defaultFontName Tahoma
skinparam defaultFontSize 12
skinparam roundCorner 6
skinparam dpi 150
skinparam arrowColor black
skinparam arrowThickness 0.5
skinparam packageTitleAlignment left

skinparam usecase {
  borderThickness 0.5
}

skinparam rectangle {
  borderThickness 0.5
}

skinparam component {
  borderThickness 1
}


rectangle "BK" as _BK
rectangle "BKCondition" as _BKCondition
rectangle "BKConstant" as _BKConstant
rectangle "BKItems" as _BKItems
rectangle "BKOption" as _BKOption
rectangle "BKService" as _BKService
rectangle "CMGrid" as _CMGrid
rectangle "CMGridFooter" as _CMGridFooter
rectangle "CMGridHeader" as _CMGridHeader
rectangle "CMGridInfo" as _CMGridInfo
rectangle "CMGridSidebar" as _CMGridSidebar
rectangle "CMSelection" as _CMSelection
rectangle "CMTextInput" as _CMTextInput
rectangle "<b>constant</b>" as _constant
(data)
rectangle "DT" as _DT
rectangle "GetBookInfo" as _GetBookInfo
(<b>index</b>)
rectangle "OD" as _OD
rectangle "ProcessService" as _ProcessService
(<b>react-app-env.d</b>)
(serviceWorker)
(<b>setupTests</b>)
rectangle "TD" as _TD
rectangle "<b>template</b>" as _template
rectangle "<b>template2</b>" as _template2
rectangle "URLService" as _URLService


_BK --> _BKCondition
_BK --> _BKItems
_BK --> _BKOption
_BK --> _CMGrid
_BK --> (data)
_BK ----> _GetBookInfo
_BKCondition --> _BKConstant
_BKCondition --> _BKService
_BKCondition ---> _CMSelection
_BKCondition ---> _CMTextInput
_BKCondition ----> _GetBookInfo
_BKConstant ----> _ProcessService
_BKItems --> _BKConstant
_BKItems --> _BKService
_BKItems ---> _CMSelection
_BKItems ----> _GetBookInfo
_BKOption --> _BKConstant
_BKOption ---> _CMSelection
_BKService --> _BKConstant
_BKService ----> _GetBookInfo
_CMGrid --> _CMGridFooter
_CMGrid --> _CMGridHeader
_CMGrid --> _CMGridInfo
_CMGrid --> _CMGridSidebar
_DT ---> _BKConstant
_DT --> _CMGrid
_DT ----> _GetBookInfo
_DT ---> _URLService
(<b>index</b>) --[thickness=1]> _BK
(<b>index</b>) --[thickness=1]> _DT
(<b>index</b>) --[thickness=1]> _OD
(<b>index</b>) -[thickness=1]> (serviceWorker)
(<b>index</b>) --[thickness=1]> _TD

@enduml


' View and edit on https://arkit.pro
]]></script></g></svg>